<?xml version="1.0" encoding="UTF-8" standalone="no"?>
<svg
   version="1.0"
   width="863pt"
   height="1280pt"
   viewBox="0 0 863 1280"
   preserveAspectRatio="xMidYMid"
   id="svg1"
   sodipodi:docname="phone.svg"
   xmlns:inkscape="http://www.inkscape.org/namespaces/inkscape"
   xmlns:sodipodi="http://sodipodi.sourceforge.net/DTD/sodipodi-0.dtd"
   xmlns="http://www.w3.org/2000/svg"
   xmlns:svg="http://www.w3.org/2000/svg">
  <defs
     id="defs1" />
  <sodipodi:namedview
     id="namedview1"
     pagecolor="#ffffff"
     bordercolor="#000000"
     borderopacity="0.25"
     inkscape:showpageshadow="2"
     inkscape:pageopacity="0.0"
     inkscape:pagecheckerboard="0"
     inkscape:deskcolor="#d1d1d1"
     inkscape:document-units="pt" />
  <metadata
     id="metadata1">
Created by potrace 1.15, written by Peter Selinger 2001-2017
</metadata>
  <g
     transform="matrix(0.1,0,0,-0.1,0,1280)"
     fill="#000000"
     stroke="none"
     id="g1">
    <path
       d="m 3349,11509 c -365,-4 -675,-12 -730,-18 -137,-17 -242,-46 -344,-96 -163,-79 -274,-190 -350,-350 -84,-176 -94,-265 -95,-790 -1,-327 -3,-393 -15,-409 -22,-29 -22,-643 0,-672 21,-28 21,-380 0,-408 -22,-29 -22,-641 0,-673 13,-18 15,-398 18,-3109 l 2,-3089 23,-85 c 67,-249 220,-427 452,-525 35,-15 111,-40 169,-55 58,-16 97,-29 86,-29 -15,-1 -16,-4 -7,-13 10,-10 376,-13 1760,-13 961,0 1760,4 1776,8 19,5 26,11 18,16 -7,4 29,17 81,29 341,83 541,265 629,577 l 23,80 3,3141 c 2,2767 4,3143 17,3154 22,18 22,671 0,690 -12,10 -15,145 -17,963 l -3,952 -27,95 c -33,121 -67,197 -123,275 -133,187 -346,301 -627,335 -47,6 -437,15 -865,20 -840,10 -901,10 -1854,-1 z M 6655,6320 V 2205 H 4335 2015 l -3,4109 c -2,3281 0,4111 10,4118 7,4 1053,7 2323,5 l 2310,-2 z"
       id="path1" />
  </g>
  <path
     style="fill:#1f0322;fill-opacity:1;stroke-width:2.60162"
     d="m 240.7211,1153.2331 c -15.40285,-5.3368 -22.21096,-9.5056 -32.77327,-20.0679 -20.73306,-20.733 -21.27065,-23.7672 -23.07524,-130.2384 -2.864,-168.9769 -2.37036,-768.42561 0.65275,-792.65969 6.20669,-49.75448 30.46447,-72.62923 82.44214,-77.74176 30.79385,-3.02889 300.00621,-2.97867 331.44468,0.0618 43.33648,4.19118 70.46098,23.244 79.48324,55.83073 2.75556,9.95253 4.0223,40.78213 5.1392,125.07802 0.81525,61.52846 1.39611,113.04066 1.2908,114.47155 -0.10535,1.4309 -0.98079,153.12528 -1.94545,337.0987 l -1.75393,334.49695 -7.83192,15.3099 c -9.01697,17.6266 -22.49149,29.0882 -44.76695,38.0793 l -15.04341,6.0721 -176.91057,0.4724 -176.91057,0.4725 z M 667.31707,647.71174 v -413.7517 l -231.32904,0.74356 c -127.23098,0.40896 -232.30415,1.71899 -233.49594,2.91119 -1.19178,1.1922 -2.48075,187.04587 -2.86435,413.00814 l -0.69747,410.84047 h 234.1934 234.1934 z"
     id="path2" />
  <path
     style="fill:#dac8e0;fill-opacity:1;stroke-width:2.60162"
     d="m 202.19169,650.6227 c 0.40432,-224.53149 1.71033,-409.21443 2.90223,-410.40651 1.1919,-1.19208 105.09434,-2.49086 230.89431,-2.88619 l 228.72721,-0.71878 V 647.73651 1058.8618 H 433.086 201.45655 Z"
     id="path3" />
</svg>
